Simulation
nRows=19
nColumns=15
endheader
time  TH_x TH_y TH_z SC_y  SC_z  SC_x  AC_y  AC_z  AC_x  GH_y  GH_z  GH_yy  EL_x  PS_y
0.0  0.000000  0.000000  0.000000  -23.955950302516325  2.640012209487123  1.4644519579071669  54.0349929676715  7.472110045761064  4.641200628162918  -134.53360153995024  6.058185882542621  -172.42337397541186  21.946748908638938  120.000000
0.02849999999999998  0.000000  0.000000  0.000000  -23.758973050872054  2.6581282733132405  1.2787065503431365  53.99650369251857  7.772636120054812  4.735690096010465  -136.56167205656368  4.583281119810705  -171.0520435722055  21.318295258258996  120.000000
0.05699999999999996  0.000000  0.000000  0.000000  -23.564394695646268  2.674345074644668  1.056687525860996  53.94158113922391  8.067917123373713  4.847286827987515  -140.95519948191466  3.1107872471820315  -167.31876395283302  20.709466063179182  120.000000
0.08549999999999994  0.000000  0.000000  0.000000  -23.402303733805503  2.704307407009655  0.8111914495601464  53.86245165498632  8.383062836961264  4.9654117571598375  -154.20522631740263  1.6728667822457384  -154.74581920270677  20.12155987208864  120.000000
0.11399999999999992  0.000000  0.000000  0.000000  -23.296503989332866  2.7596276374864965  0.5589655066076975  53.75840030268278  8.73526587143488  5.08457396506209  136.13471169904267  0.8199831904648469  -85.80581538891708  19.563480486239904  120.000000
0.1424999999999999  0.000000  0.000000  0.000000  -23.255973639090385  2.8393323309311325  0.3212481174033969  53.637564679843  9.134263318682823  5.201148215463123  80.12558114822374  1.9831247497150473  -30.590761858477375  19.042383921051965  120.000000
0.17099999999999987  0.000000  0.000000  0.000000  -23.278743716775157  2.937666475019149  0.11787849270555979  53.513315363563  9.581143323880001  5.316001568441006  69.31905891026615  3.687327678141434  -20.684705281973265  18.570393842863886  120.000000
0.19949999999999987  0.000000  0.000000  0.000000  -23.354130364976726  3.0456875423754646  -0.0338716814659938  53.401758325735635  10.069008238151687  5.431191291433952  65.47580883970977  5.56822519654979  -17.87713061444348  18.159961902595764  120.000000
0.22799999999999984  0.000000  0.000000  0.000000  -23.468917861052958  3.1539041859888033  -0.12268243492447056  53.319800457499596  10.587339168463966  5.54724654372685  63.53774942693308  7.59516972426643  -17.13161333423414  17.824872511967076  120.000000
0.25649999999999984  0.000000  0.000000  0.000000  -23.610550365622647  3.2553538461715212  -0.1418146766218984  53.28171661490266  11.123694261459297  5.663961952240193  62.27006166068671  9.753961486935799  -17.226231534994767  17.578104344473598  120.000000
0.2849999999999998  0.000000  0.000000  0.000000  -23.769225514611588  3.345095262784548  -0.0879880905792077  53.29832367535819  11.66703231712499  5.779657735216615  61.23133784829482  12.02644309695813  -17.721356992667488  17.428784315893104  120.000000
0.3134999999999998  0.000000  0.000000  0.000000  -23.93938761774338  3.4216191414664756  0.03972342530106982  53.376235101063635  12.20893728430577  5.892235382352816  60.2364636318449  14.389362442553786  -18.422077289656535  17.37950748398018  120.000000
0.34199999999999975  0.000000  0.000000  0.000000  -24.11842036265306  3.486449355911067  0.2413711787054591  53.517905464436474  12.74427030191109  5.998946832452728  59.21198732833594  16.816456235048975  -19.233831582433304  17.42347791822423  120.000000
0.3704999999999997  0.000000  0.000000  0.000000  -24.3076290219862  3.54305958290538  0.5162464613574699  53.721262728252725  13.270470131411669  6.097562590720292  58.13866138502465  19.280851041446358  -20.107305569776187  17.54441704711081  120.000000
0.39899999999999974  0.000000  0.000000  0.000000  -24.5095813129033  3.5956551668510675  0.8637366643714782  53.98008632493876  13.78639514971142  6.186874318122818  57.02530258483439  21.756181363134708  -21.0145880853096  17.71977277087007  120.000000
0.4274999999999997  0.000000  0.000000  0.000000  -24.726836304164408  3.648398844124407  1.2829959683127132  54.28547420180356  14.291591654869135  6.2669374875645305  55.89154748913356  24.217263905172132  -21.935964722591873  17.92630559934989  120.000000
0.4559999999999997  0.000000  0.000000  0.000000  -24.96071018297927  3.7041520726688257  1.7726083074524583  54.6268538546865  14.784822889167295  6.3391990162869  54.7592837648152  26.64035937496884  -22.85809878232502  18.145327263986385  120.000000
0.48449999999999965  0.000000  0.000000  0.000000  -25.212200961097373  3.764062407895464  2.329590547866586  54.99303333630944  15.263188690910503  6.405622907093183  53.645327594356196  29.003728311238365  -23.77052974542945  18.3668082992938  120.000000
0.5129999999999997  0.000000  0.000000  0.000000  -25.480883998329823  3.8288055776300802  2.949340883990749  55.373739409830016  15.722273180706212  6.467530149527221  52.5591896210987  31.28712475631425  -24.664324930063923  18.590950977796396  120.000000
